<?xml version="1.0" encoding="utf-8"?>
<!-- Generator: Adobe Illustrator 21.0.0, SVG Export Plug-In . SVG Version: 6.00 Build 0)  -->
<svg version="1.1" id="Layer_1" xmlns="http://www.w3.org/2000/svg" xmlns:xlink="http://www.w3.org/1999/xlink" x="0px" y="0px"
	 viewBox="0 0 100 125" style="enable-background:new 0 0 100 125;" xml:space="preserve">
<style type="text/css">
	.st0{fill:#FFFFFF;}
</style>
<path class="st0" d="M54.3,99.5c2.4,2.5,5.1,4.6,7.9,6.5c-2.8,6-6.9,11.5-12.4,15.9c-5.5-4.4-9.6-9.9-12.4-15.9
	c3-1.9,5.5-4.1,7.9-6.5c0.6,0.5,1.4,1.1,2,1.6l2.4,1.8l2.4-1.8C52.9,100.6,53.5,100,54.3,99.5z M74,104.4c4.1-5.6,6.7-12,7.5-18.4
	c-4.1-1.6-8.1-3.7-11.8-6c-2.4,5.3-5.7,10.2-9.8,14.7C63.8,98.6,68.5,102,74,104.4z M54.9,64.4c-1,0.5-2.2,1.1-3.2,1.6l-2,1.1
	L48,66.1c-1.2-0.5-2.2-1.1-3.2-1.6c-2.4,3.9-5.1,7.2-8.5,10.4C39,82.2,43.5,88.7,50,93.9c6.5-5.1,11-11.7,13.6-18.9
	C60,71.8,57.3,68.3,54.9,64.4z M18.1,85.9c0.8,6.5,3.3,12.9,7.5,18.5c5.5-2.5,10.2-5.8,14.2-9.9c-4.3-4.4-7.7-9.4-9.8-14.7
	C26.4,82.4,22.4,84.3,18.1,85.9z M38.4,60.3c-3.5-2.6-6.7-5.6-9.5-9c-6.1,3.7-13,6-20.3,7.2c-0.2,7.4,1.6,14.7,5.5,21.4
	C24.6,76,33.1,69.1,38.4,60.3z M61.2,60.3C66.3,69.1,75,76,85.4,79.7c3.9-6.7,5.9-13.9,5.5-21.4c-7.3-1.2-14-3.5-20.3-7.2
	C68.1,54.7,64.8,57.7,61.2,60.3z M53.7,13.5V6.5c0-1.9-1.8-3.5-3.9-3.5c-2.2,0-3.9,1.6-3.9,3.5v7.1C23,15.3,4.7,31.5,2.7,52
	c9.1-0.7,17.5-3.7,24.6-8.7l3.5-2.5l2.4,3.4c4.1,6,9.8,10.9,16.5,14.5c6.7-3.5,12.4-8.5,16.5-14.5l2.4-3.4l3.5,2.5
	c7.3,4.9,15.8,7.9,24.6,8.7C94.9,31.5,76.6,15.3,53.7,13.5z"/>
</svg>
